#define colon_width 10
#define colon_height 36
static unsigned char colon_bits[] = {
   0xff, 0x03, 0xff, 0x03, 0xff, 0x03, 0xff, 0x03, 0xff, 0x03, 0xff, 0x03,
   0xff, 0x03, 0xff, 0x03, 0xff, 0x03, 0xff, 0x03, 0xff, 0x03, 0xff, 0x03,
   0xff, 0x03, 0xff, 0x03, 0xff, 0x03, 0xff, 0x03, 0xc7, 0x03, 0x83, 0x03,
   0xc7, 0x03, 0xff, 0x03, 0xff, 0x03, 0xff, 0x03, 0xff, 0x03, 0xff, 0x03,
   0xc7, 0x03, 0x83, 0x03, 0xc7, 0x03, 0xff, 0x03, 0xff, 0x03, 0xff, 0x03,
   0xff, 0x03, 0xff, 0x03, 0xff, 0x03, 0xff, 0x03, 0xff, 0x03, 0xff, 0x03};
