/* XPM */
static char * flyer_xpm[] = {
"8 8 3 1",
" 	c forest green",
".	g4 yellow	c tomato",
"X	c black",
"   ..   ",
"  .XX.  ",
" ...... ",
" .X..X. ",
" ...... ",
" ..XX.. ",
"  ....  ",
"  .XX.  "};
