/* XPM */
static char * runner_xpm[] = {
"8 8 5 1",
" 	c gold",
".	c sienna",
"X	c yellow",
"o	c orange",
"O	c dark violet",
"  ....  ",
"   XX   ",
".ooXoo..",
".oo ooX.",
".XXX XX.",
".XOOOO .",
"   XXX  ",
"  ....  "};
