/* XPM */
static char * way_xpm[] = {
"32 32 4 1",
" 	c goldenrod",
".	c forest green",
"X	c green yellow",
"o	c lime green",
"  ... .. . ... .  ... .. . .  ..",
" .. .......X... ................",
".....  . .. .  .. ....o.........",
".. ................... ... .. ..",
". ...o.. .   ... .X . . ..... ..",
"....o...... ..  .  ... ..... ...",
" . ...... . ...   .....  . .....",
".....    o.... . ..  .  ........",
".... ........ . .. ..... ......X",
".. .... .  . ..  . .......... ..",
"... .. .. ....    . ... ...  ...",
"   .   .. . ....  .... .o. ...  ",
".....    ..... .. .. .. o.... . ",
" ... ..... . . . .......o.......",
" ..... .. o . . . . ............",
". .X . ..   ... ...  . .... . . ",
".... ...... ... .... .  . ..... ",
" . .  .....  .  ...  ... .. ... ",
"......    ..  ... .. ....  .....",
".....  .....X  ....o. .. ... ...",
" .  . . . .  . ..... . . ..... o",
"...  .. ....  .. .. ...... . . .",
"... . .. . ........... ...... ..",
"... .. ...  . .. ...    ........",
" .... .. . . .   .... ... .X....",
".. ...  .....o ..........  .. ..",
"..  ... ...... ...... ..........",
" X... .. .. o... .   ..   ..... ",
"...... ....o...... . .... . ....",
".  . . ..... ...  ........ .. ..",
"...o. .............. .o..... ...",
"...o...... .... ................"};
